<svg width="84" height="100" viewBox="0 0 84 76" fill="none" xmlns="http://www.w3.org/2000/svg">
<path fill-rule="evenodd" clip-rule="evenodd" d="M75.334 0.445312H8.66732C4.08398 0.445312 0.333984 4.17872 0.333984 8.74177V66.817C0.333984 71.3801 4.08398 75.1135 8.66732 75.1135H75.334C79.9173 75.1135 83.6673 71.3801 83.6673 66.817V8.74177C83.6673 4.17872 79.9173 0.445312 75.334 0.445312ZM75.334 66.817H8.66732V8.74177H75.334V66.817Z" fill="#DCF3FD"/>
<path fill-rule="evenodd" clip-rule="evenodd" d="M72.8756 31.2252L66.959 25.3347L53.7506 38.4846L47.8756 32.5941L42.0006 38.4431L53.7506 50.2241L72.8756 31.2252Z" fill="#DCF3FD"/>
<path d="M33.6673 17.0382H12.834V25.3347H33.6673V17.0382Z" fill="#DCF3FD"/>
<path d="M33.6673 33.6312H12.834V41.9276H33.6673V33.6312Z" fill="#DCF3FD"/>
<path d="M33.6673 50.2241H12.834V58.5205H33.6673V50.2241Z" fill="#DCF3FD"/>
</svg>